- 
http://www.Speed.Cd      fast  and The Hottest Private Tracker on the net

Please Seed back to make the speed Faster!!!

------------------nfo--------------------------
-                                                                                                     
       
     
     
       
       
     
     
                                         
                                         
                EXVID                    
                                         
         
                                         
         Filled the Archives             
                                         
         
                                         
                With:                    
                                         
         
                                         
                                    
     E240                           
                                    
     SP               (C) 2009      
                                         
     
     
     
                                                                                  
                                                                                   
                     Crank.2006.DC.BDRip.XviD-EXViD                                 
                                                                                   
                                                                                  
     
                                                                                               
EXViD aims to iNTERNAL those releases which have been lost in the archives.
EXViD aims to PRE non-internal releases which have poor sources and are likely skipped by others.
 
http://www.imdb.com/title/tt0479884/
Subtitles: English
Date: 2011.10

Directors: Mark Neveldine, Brian Taylor

Genre: Action | Crime | Thriller

Plot:
Professional assassin Chev Chelios learns his rival has injected him with a poison that will
kill him if his heart rate drops.

Cast:
Jason Statham 	 ... 	 Chev Chelios
Amy Smart 	 ... 	 Eve
Jose Pablo Cantillo 	 ... 	 Verona
Efren Ramirez 	 ... 	 Kaylo
Dwight Yoakam 	 ... 	 Doc Miles
Carlos Sanz 	 ... 	 Carlito
Reno Wilson 	 ... 	 Orlando
Edi Gathegi 	 ... 	 Haitian Cabbie
Glenn Howerton 	 ... 	 Doctor
Jay Xcala 	 ... 	 Alex
Keone Young 	 ... 	 Don Kim
Valarie Rae Miller 	 ... 	 Chocolate
Yousuf Azami 	 ... 	 Arab Cabbie
Laurent Schwaar 	 ... 	 Man in Garage (as Laurent Schwar)
David Brown 	 ... 	 Sin City Brother

Stats:
Format                           : AVI
Format/Info                      : Audio Video Interleave
File size                        : 701 MiB
Duration                         : 1h 34mn
Overall bit rate                 : 1 040 Kbps
Writing application              : Nandub v1.0rc2
Writing library                  : Nandub build 1852/release

Video
ID                               : 0
Format                           : MPEG-4 Visual
Format profile                   : Advanced Simple@L5
Format settings, BVOP            : 2
Format settings, QPel            : No
Format settings, GMC             : No warppoints
Format settings, Matrix          : Default (H.263)
Codec ID                         : XVID
Codec ID/Hint                    : XviD
Duration                         : 1h 34mn
Bit rate                         : 905 Kbps
Width                            : 592 pixels
Height                           : 320 pixels
Display aspect ratio             : 1.850
Frame rate                       : 23.976 fps
Color space                      : YUV
Chroma subsampling               : 4:2:0
Bit depth                        : 8 bits
Scan type                        : Progressive
Compression mode                 : Lossy
Bits/(Pixel*Frame)               : 0.199
Stream size                      : 610 MiB (87%)
Writing library                  : XviD 64

Audio
ID                               : 1
Format                           : MPEG Audio
Format version                   : Version 1
Format profile                   : Layer 3
Mode                             : Joint stereo
Mode extension                   : MS Stereo
Codec ID                         : 55
Codec ID/Hint                    : MP3
Duration                         : 1h 34mn
Bit rate mode                    : Variable
Bit rate                         : 128 Kbps
Channel(s)                       : 2 channels
Sampling rate                    : 48.0 KHz
Compression mode                 : Lossy
Stream size                      : 82.3 MiB (12%)
Alignment                        : Aligned on interleaves
Interleave, duration             : 24 ms (0.58 video frame)
Interleave, preload duration     : 144 ms
Writing library                  : LAME3.98r
Encoding settings                : -m j -V 4 -q 3 -lowpass 17 --abr 128




Release notes:
DoNE did the THEATRiCAL cut, this is the DC which is about 6 mins longer.

See http://www.movie-censorship.com/report.php?ID=4440 for differences.

enjoy!

Looking for:
75TB+ Archives
DUTCH/FLEMiSH Archives
                                                                                                    
Greets: CRBS EPiSODE FiCO FLS iLS KLASSiGER LiPSYNC MADE NODLABS RUNNER SPRiNTER      
   

                                                                    ASCII DONE BY XX^NFO 2oo9